<?xml version="1.0" encoding="utf-8"?>
<!-- Generator: Adobe Illustrator 21.1.0, SVG Export Plug-In . SVG Version: 6.00 Build 0)  -->
<svg version="1.1" id="图层_1" xmlns="http://www.w3.org/2000/svg" xmlns:xlink="http://www.w3.org/1999/xlink" x="0px" y="0px"
	 viewBox="0 0 4 7" style="enable-background:new 0 0 4 7;" xml:space="preserve">
<style type="text/css">
	.st0{fill:#3464E0;}
</style>
<path id="arrow_1" class="st0" d="M4,3.5c0,0.1-0.1,0.3-0.2,0.4l-3,3C0.7,7,0.4,7,0.2,6.8c0,0,0,0,0,0c-0.2-0.2-0.2-0.5,0-0.7
	l2.6-2.6L0.2,0.9C0,0.7-0.1,0.4,0.1,0.2c0.2-0.2,0.5-0.2,0.7,0c0,0,0,0,0,0l3,3C3.9,3.2,4,3.3,4,3.5z"/>
</svg>
