<?xml version="1.0" encoding="utf-8"?>
<!-- Generator: Adobe Illustrator 21.1.0, SVG Export Plug-In . SVG Version: 6.00 Build 0)  -->
<svg version="1.1" id="图层_1" xmlns="http://www.w3.org/2000/svg" xmlns:xlink="http://www.w3.org/1999/xlink" x="0px" y="0px"
	 viewBox="0 0 7 3.969" style="enable-background:new 0 0 7 3.969;" xml:space="preserve">
<style type="text/css">
	.st0{fill:#3464E0;}
</style>
<path id="arrow_2" class="st0" d="M3.486,3.969c-0.141,0-0.276-0.055-0.376-0.154L0.153,0.876c-0.199-0.192-0.204-0.508-0.012-0.707
	c0.007-0.007,0.013-0.014,0.02-0.02C0.37-0.049,0.699-0.046,0.904,0.156l2.582,2.567l2.582-2.567
	c0.206-0.202,0.534-0.205,0.744-0.007c0.203,0.188,0.215,0.504,0.027,0.707c-0.006,0.007-0.013,0.014-0.02,0.02L3.862,3.815
	C3.762,3.914,3.627,3.969,3.486,3.969z"/>
</svg>
