<?xml version="1.0" encoding="utf-8"?>
<svg version="1.1" xmlns:xlink="http://www.w3.org/1999/xlink" width="16px" height="16px" xmlns="http://www.w3.org/2000/svg">
  <g transform="matrix(1 0 0 1 -635 -225 )">
    <path d="M 0.5 8  C 0.5 3.85786437626894  3.85786437626894 0.5  8 0.5  C 12.1421356237308 0.5  15.5 3.85786437626894  15.5 8  C 15.5 12.1421356237306  12.1421356237308 15.5  8 15.5  C 3.85786437626894 15.5  0.5 12.1421356237306  0.5 8  Z M 2.05719816938358 10.4567487185341  C 3.05291043924808 12.8597556325794  5.3988693647932 14.4256676111722  8 14.4235294117648  C 11.0682530737299 14.4248150692169  13.709903243571 12.2668076710834  14.3087475748664 9.25756124643749  C 14.9075919061618 6.24831482179161  13.2967519052536 3.23523228394697  10.4617647058824 2.06176470588252  C 8.05989527084785 1.06331171732654  5.29301947741806 1.61103605381049  3.45269291385944 3.44926435648904  C 1.61236635030036 5.28749265916758  1.06148589951886 8.05374180448871  2.05719816938358 10.4567487185341  Z M 11.2470588235299 11.2470588235306  C 11.1771503195994 11.3183391813045  11.082167529986 11.3594983901367  10.9823529411769 11.3617647058827  C 10.8802781405857 11.3579878368541  10.7830601652572 11.3172190084906  10.7088235294123 11.2470588235296  C 10.7088235294123 11.2470588235296  8.00000000000045 8.46764705882333  8.00000000000045 8.46764705882333  C 8.00000000000045 8.46764705882333  5.2823529411769 11.2470588235296  5.2823529411769 11.2470588235296  C 5.2124444372464 11.3183391813036  5.11746164763349 11.3594983901362  5.0176470588242 11.3617647058827  C 4.85945309614976 11.3602346625958  4.7176291400001 11.2639165824594  4.65787903984392 11.1174324659469  C 4.59812893968751 10.9709483494344  4.63212501438807 10.8029142040828  4.74411764705974 10.6911764705887  C 4.74411764705974 10.6911764705887  7.46176470588307 7.92058823529442  7.46176470588307 7.92058823529442  C 7.46176470588307 7.92058823529442  4.90294117647136 5.30000000000064  4.90294117647136 5.30000000000064  C 4.75312641937876 5.14841769144732  4.75312641937876 4.90452348502458  4.90294117647136 4.75294117647127  C 4.97184291963026 4.67706969188794  5.06957012960129 4.63380760194514  5.17205882353005 4.63380760194514  C 5.27454751745904 4.63380760194514  5.37227472742984 4.67706969188794  5.44117647058874 4.75294117647127  C 5.44117647058874 4.75294117647127  8.00000000000068 7.36470588235352  8.00000000000068 7.36470588235352  C 8.00000000000068 7.36470588235352  10.5500000000009 4.75294117647127  10.5500000000009 4.75294117647127  C 10.61890174316 4.67706969188839  10.7166289531308 4.63380760194514  10.8191176470596 4.63380760194514  C 10.9216063409883 4.63380760194514  11.0193335509593 4.67706969188839  11.0882352941185 4.75294117647172  C 11.2380500512111 4.90452348502504  11.2380500512111 5.14841769144732  11.0882352941185 5.30000000000064  C 11.0882352941185 5.30000000000064  8.52941176470654 7.92058823529487  8.52941176470654 7.92058823529487  C 8.52941176470654 7.92058823529487  11.2470588235301 10.6911764705892  11.2470588235301 10.6911764705892  C 11.3969978362475 10.8461381256893  11.3969978362475 11.09209716843  11.2470588235299 11.2470588235306  Z " fill-rule="nonzero" stroke="none" transform="matrix(1 0 0 1 635 225 )" />
  </g>
</svg>
