<svg xmlns="http://www.w3.org/2000/svg" width="13" height="13" viewBox="0 0 13 13">
  <defs>
    <style>
      .cls-1 {
        fill: #acacac;
        fill-rule: evenodd;
      }
    </style>
  </defs>
  <path id="截屏" class="cls-1" d="M893.035,3905.22c-0.033-.01,1.628-0.08,1.9-0.12a0.548,0.548,0,0,0,.035-0.72l-0.444-.46h0c-0.513-.45-3.745-2.59-2.967-5.92l4.546,4.46-0.006.01,2.937,2.96a2.877,2.877,0,1,1-1.345,1.09,6.6,6.6,0,0,0-2.39.01,2.879,2.879,0,1,1-2.271-1.31h0Zm-0.147,4.33a1.44,1.44,0,1,0-1.444-1.44,1.439,1.439,0,0,0,1.444,1.44h0Zm7.221,0a1.44,1.44,0,1,0,0-2.88h0a1.44,1.44,0,1,0,0,2.88h0Zm-3.61-3.97a0.72,0.72,0,1,0,0-1.44,0.749,0.749,0,0,0-.515.21,0.723,0.723,0,0,0,.515,1.23h0Zm2.246-1.87-1.511-1.54,4.32-4.17c0.843,3.61-2.809,5.54-2.809,5.7v0.01Zm0,0" transform="translate(-890 -3898)"/>
</svg>
