<svg xmlns="http://www.w3.org/2000/svg" width="13.469" height="15" viewBox="0 0 13.469 15">
  <metadata><?xpacket begin="﻿" id="W5M0MpCehiHzreSzNTczkc9d"?>
<x:xmpmeta xmlns:x="adobe:ns:meta/" x:xmptk="Adobe XMP Core 5.6-c138 79.159824, 2016/09/14-01:09:01        ">
   <rdf:RDF xmlns:rdf="http://www.w3.org/1999/02/22-rdf-syntax-ns#">
      <rdf:Description rdf:about=""/>
   </rdf:RDF>
</x:xmpmeta>
                                                                                                    
                                                                                                    
                                                                                                    
                                                                                                    
                                                                                                    
                                                                                                    
                                                                                                    
                                                                                                    
                                                                                                    
                                                                                                    
                                                                                                    
                                                                                                    
                                                                                                    
                                                                                                    
                                                                                                    
                                                                                                    
                                                                                                    
                                                                                                    
                                                                                                    
                                                                                                    
                           
<?xpacket end="w"?></metadata>
<defs>
    <style>
      .cls-1 {
        fill: #999;
        fill-rule: evenodd;
      }
    </style>
  </defs>
  <path id="edit" class="cls-1" d="M596.8,654.675h0.007l2.943-.189a0.8,0.8,0,0,0,.509-0.223l8.413-7.916a2.443,2.443,0,0,0,0-3.6,2.788,2.788,0,0,0-1.9-.749h-0.026a2.779,2.779,0,0,0-1.9.745l-8.4,7.911a0.715,0.715,0,0,0-.24.488l-0.2,2.722a0.73,0.73,0,0,0,.215.569A0.82,0.82,0,0,0,596.8,654.675Zm8-9.758,1.176-1.1h0a1.132,1.132,0,0,1,.775-0.3h0a1.131,1.131,0,0,1,.78.309,0.994,0.994,0,0,1,0,1.456l-1.175,1.1Zm-7.138,8.193,0.116-1.581,5.891-5.549,1.56,1.47L599.345,653ZM607,656H597c-0.441,0-.99-0.164-0.99.252a0.779,0.779,0,0,0,.8.754h10.38a0.78,0.78,0,0,0,.8-0.754C607.99,655.834,607.441,656,607,656Z" transform="translate(-596 -642)"/>
</svg>
