<?xml version="1.0" encoding="utf-8"?>
<!-- Generator: Adobe Illustrator 21.1.0, SVG Export Plug-In . SVG Version: 6.00 Build 0)  -->
<svg version="1.1" id="图层_1" xmlns="http://www.w3.org/2000/svg" xmlns:xlink="http://www.w3.org/1999/xlink" x="0px" y="0px"
	 viewBox="0 0 14 14" style="enable-background:new 0 0 14 14;" xml:space="preserve">
<style type="text/css">
	.st0{fill:#3464E0;}
</style>
<g>
	<g>
		<path class="st0" d="M13.406,7.681c0.187,0.234,0.168,0.598-0.037,0.804c-0.093,0.093-0.215,0.149-0.327,0.149
			c-0.131,0-0.271-0.056-0.374-0.187l-1.224-1.579c-0.009-0.009-0.009-0.019-0.019-0.028c-0.635,0.411-1.364,0.72-2.206,0.888
			l0.514,1.794c0.093,0.299-0.056,0.626-0.308,0.72c-0.056,0.019-0.103,0.028-0.159,0.028c-0.206,0-0.402-0.15-0.467-0.393l-0.57-2
			c-0.364,0.037-0.748,0.047-1.15,0.047c-0.458,0-0.869-0.028-1.252-0.065L5.275,9.775c-0.065,0.243-0.262,0.392-0.467,0.392
			c-0.056,0-0.103-0.009-0.159-0.028c-0.262-0.093-0.402-0.411-0.308-0.71l0.495-1.738C3.939,7.476,3.219,7.149,2.631,6.728
			L1.322,8.401C1.229,8.532,1.089,8.588,0.948,8.588c-0.126,0-0.245-0.054-0.327-0.149c-0.196-0.215-0.224-0.57-0.037-0.804
			l1.243-1.598C1.369,5.616,1.004,5.139,0.659,4.663C0.49,4.41,0.518,4.055,0.733,3.859c0.215-0.196,0.523-0.168,0.701,0.084
			c0.85,1.206,2.028,2.86,5.645,2.86c3.663,0,4.925-1.598,5.551-2.794c0.14-0.271,0.449-0.355,0.673-0.196
			c0.234,0.159,0.308,0.514,0.168,0.776c-0.327,0.635-0.748,1.159-1.215,1.617L13.406,7.681z"/>
	</g>
</g>
</svg>
