<?xml version="1.0" encoding="utf-8"?>
<!-- Generator: Adobe Illustrator 21.1.0, SVG Export Plug-In . SVG Version: 6.00 Build 0)  -->
<svg version="1.1" id="图层_1" xmlns="http://www.w3.org/2000/svg" xmlns:xlink="http://www.w3.org/1999/xlink" x="0px" y="0px"
	 viewBox="0 0 14 14" style="enable-background:new 0 0 14 14;" xml:space="preserve">
<style type="text/css">
	.st0{fill:#999999;}
</style>
<path id="展示" class="st0" d="M13.938,7.946l-0.122-0.232c-0.455-0.837-1.05-1.588-1.761-2.222l1.245-0.8
	c0.109-0.071,0.186-0.182,0.213-0.309c0.029-0.128,0.007-0.263-0.061-0.375c-0.135-0.226-0.428-0.3-0.654-0.165
	c-0.004,0.002-0.008,0.005-0.012,0.007l-1.541,0.991l-0.14-0.1c-0.607-0.422-1.269-0.758-1.967-1l0.659-2.085
	c0.084-0.259-0.053-0.537-0.31-0.627C9.237,0.946,8.966,1.082,8.883,1.332C8.882,1.338,8.88,1.343,8.878,1.349L8.201,3.493
	c-0.792-0.156-1.608-0.156-2.4,0L5.125,1.349C5.086,1.225,5,1.12,4.885,1.059c-0.114-0.06-0.247-0.07-0.369-0.03
	C4.393,1.07,4.292,1.159,4.235,1.276c-0.059,0.118-0.069,0.254-0.03,0.38l0.659,2.085c-0.698,0.242-1.359,0.578-1.965,1
	c-0.047,0.032-0.094,0.065-0.141,0.1L1.216,3.849c-0.108-0.071-0.24-0.094-0.365-0.063c-0.126,0.03-0.234,0.11-0.3,0.221
	c-0.069,0.112-0.09,0.247-0.06,0.375c0.027,0.127,0.104,0.239,0.214,0.309l1.245,0.8C1.359,6.022,0.845,6.635,0.423,7.31
	C0.34,7.445,0.261,7.582,0.188,7.719L0.071,7.935c-0.088,0.159-0.088,0.352,0,0.511L0.196,8.67c0.653,1.188,1.578,2.204,2.7,2.965
	c2.432,1.814,5.768,1.814,8.2,0c1.125-0.762,2.054-1.779,2.711-2.968l0.122-0.231C14.013,8.284,14.016,8.101,13.938,7.946z
	 M12.923,8.201c-1.526,3.268-5.412,4.68-8.679,3.154c-1.392-0.65-2.511-1.77-3.159-3.163C1.142,8.085,1.202,7.98,1.267,7.875
	C2.955,4.7,6.896,3.495,10.07,5.182c1.255,0.667,2.257,1.727,2.854,3.017V8.201z M6.243,9.554C5.32,8.967,5.019,7.56,5.739,6.552
	c0.674-1.1,1.332-0.129,2.273,0.447C8.953,7.575,9.825,7.54,9.151,8.641C8.765,9.272,8.214,9.724,7.456,9.813
	C6.984,9.869,6.574,9.764,6.243,9.554z"/>
</svg>
