<svg xmlns="http://www.w3.org/2000/svg" width="12" height="12" viewBox="0 0 12 12">
  <metadata><?xpacket begin="﻿" id="W5M0MpCehiHzreSzNTczkc9d"?>
<x:xmpmeta xmlns:x="adobe:ns:meta/" x:xmptk="Adobe XMP Core 5.6-c138 79.159824, 2016/09/14-01:09:01        ">
   <rdf:RDF xmlns:rdf="http://www.w3.org/1999/02/22-rdf-syntax-ns#">
      <rdf:Description rdf:about=""/>
   </rdf:RDF>
</x:xmpmeta>
                                                                                                    
                                                                                                    
                                                                                                    
                                                                                                    
                                                                                                    
                                                                                                    
                                                                                                    
                                                                                                    
                                                                                                    
                                                                                                    
                                                                                                    
                                                                                                    
                                                                                                    
                                                                                                    
                                                                                                    
                                                                                                    
                                                                                                    
                                                                                                    
                                                                                                    
                                                                                                    
                           
<?xpacket end="w"?></metadata>
<defs>
    <style>
      .cls-1 {
        fill: #ffb44a;
        fill-rule: evenodd;
      }
    </style>
  </defs>
  <path id="star" class="cls-1" d="M398.579,223.349l1.354,2.866a0.649,0.649,0,0,0,.487.369l3.028,0.46a0.683,0.683,0,0,1,.359,1.151l-2.192,2.231a0.7,0.7,0,0,0-.186.6l0.517,3.15a0.652,0.652,0,0,1-.937.711L398.3,233.4a0.62,0.62,0,0,0-.6,0l-2.708,1.486a0.652,0.652,0,0,1-.938-0.711l0.517-3.15a0.692,0.692,0,0,0-.186-0.6l-2.191-2.231a0.683,0.683,0,0,1,.358-1.151l3.029-.46a0.651,0.651,0,0,0,.487-0.369l1.353-2.866a0.634,0.634,0,0,1,1.16,0h0Zm0,0" transform="translate(-392 -222.969)"/>
</svg>
