<svg xmlns="http://www.w3.org/2000/svg" width="13" height="13.031" viewBox="0 0 13 13.031">
  <metadata><?xpacket begin="﻿" id="W5M0MpCehiHzreSzNTczkc9d"?>
<x:xmpmeta xmlns:x="adobe:ns:meta/" x:xmptk="Adobe XMP Core 5.6-c138 79.159824, 2016/09/14-01:09:01        ">
   <rdf:RDF xmlns:rdf="http://www.w3.org/1999/02/22-rdf-syntax-ns#">
      <rdf:Description rdf:about=""/>
   </rdf:RDF>
</x:xmpmeta>
                                                                                                    
                                                                                                    
                                                                                                    
                                                                                                    
                                                                                                    
                                                                                                    
                                                                                                    
                                                                                                    
                                                                                                    
                                                                                                    
                                                                                                    
                                                                                                    
                                                                                                    
                                                                                                    
                                                                                                    
                                                                                                    
                                                                                                    
                                                                                                    
                                                                                                    
                                                                                                    
                           
<?xpacket end="w"?></metadata>
<defs>
    <style>
      .cls-1 {
        fill: #fff;
        stroke: #999;
        stroke-width: 1px;
        fill-rule: evenodd;
      }
    </style>
  </defs>
  <path id="收藏-hover" class="cls-1" d="M1086.58,559.35l1.35,2.875a0.667,0.667,0,0,0,.49.37l3.03,0.461a0.687,0.687,0,0,1,.36,1.154l-2.19,2.238a0.665,0.665,0,0,0-.19.6l0.52,3.159a0.655,0.655,0,0,1-.94.714l-2.71-1.491a0.616,0.616,0,0,0-.6,0l-2.71,1.491a0.655,0.655,0,0,1-.94-0.714l0.52-3.159a0.693,0.693,0,0,0-.19-0.6l-2.19-2.238a0.687,0.687,0,0,1,.36-1.154l3.03-.461a0.667,0.667,0,0,0,.49-0.37l1.35-2.875a0.634,0.634,0,0,1,1.16,0h0Zm0,0" transform="translate(-1079.5 -558.469)"/>
</svg>
