<?xml version="1.0" encoding="utf-8"?>
<!-- Generator: Adobe Illustrator 23.0.0, SVG Export Plug-In . SVG Version: 6.00 Build 0)  -->
<svg version="1.1" id="图层_1" xmlns="http://www.w3.org/2000/svg" xmlns:xlink="http://www.w3.org/1999/xlink" x="0px" y="0px"
	 viewBox="0 0 18 18" style="enable-background:new 0 0 18 18;" xml:space="preserve">
<g>
	<path d="M14.426,2.422H3.575c-1.107,0-2.009,0.901-2.009,2.008v9.139c0,1.107,0.901,2.009,2.009,2.009h10.851
		c1.107,0,2.009-0.901,2.009-2.009V4.431C16.435,3.323,15.533,2.422,14.426,2.422z M15.13,13.569c0,0.389-0.315,0.704-0.704,0.704
		H3.575c-0.388,0-0.704-0.315-0.704-0.704V4.431c0-0.388,0.316-0.704,0.704-0.704h10.851c0.389,0,0.704,0.316,0.704,0.704V13.569z"
		/>
	<path d="M7.696,6.135H4.879c-0.331,0-0.601,0.27-0.601,0.601v4.625c0,0.331,0.27,0.601,0.601,0.601h2.817
		c0.331,0,0.6-0.27,0.6-0.601V6.735C8.296,6.404,8.026,6.135,7.696,6.135z M6.992,10.656H5.583V7.439h1.408L6.992,10.656z"/>
</g>
<path d="M13.535,8.344H9.891c-0.103,0-0.187-0.084-0.187-0.187V7.226c0-0.103,0.084-0.187,0.187-0.187h3.644
	c0.103,0,0.187,0.084,0.187,0.187v0.931C13.722,8.26,13.638,8.344,13.535,8.344z"/>
<path d="M13.535,11.057h-2.74c-0.103,0-0.187-0.084-0.187-0.187V9.939c0-0.103,0.084-0.187,0.187-0.187h2.74
	c0.103,0,0.187,0.084,0.187,0.187v0.931C13.722,10.973,13.638,11.057,13.535,11.057z"/>
</svg>
