<svg id="指南-HOT" xmlns="http://www.w3.org/2000/svg" width="26" height="13" viewBox="0 0 26 13">
  <metadata><?xpacket begin="﻿" id="W5M0MpCehiHzreSzNTczkc9d"?>
<x:xmpmeta xmlns:x="adobe:ns:meta/" x:xmptk="Adobe XMP Core 5.6-c138 79.159824, 2016/09/14-01:09:01        ">
   <rdf:RDF xmlns:rdf="http://www.w3.org/1999/02/22-rdf-syntax-ns#">
      <rdf:Description rdf:about=""/>
   </rdf:RDF>
</x:xmpmeta>
                                                                                                    
                                                                                                    
                                                                                                    
                                                                                                    
                                                                                                    
                                                                                                    
                                                                                                    
                                                                                                    
                                                                                                    
                                                                                                    
                                                                                                    
                                                                                                    
                                                                                                    
                                                                                                    
                                                                                                    
                                                                                                    
                                                                                                    
                                                                                                    
                                                                                                    
                                                                                                    
                           
<?xpacket end="w"?></metadata>
<defs>
    <style>
      .cls-1 {
        fill: #ff6e6e;
      }

      .cls-1, .cls-2 {
        fill-rule: evenodd;
      }

      .cls-2 {
        fill: #fff;
      }
    </style>
  </defs>
  <path id="圆角矩形_34" data-name="圆角矩形 34" class="cls-1" d="M540.474,1840h18.842a2.663,2.663,0,0,1,2.684,2.65v7.7a2.67,2.67,0,0,1-2.684,2.65H536l2-2v-8C538,1841.54,538.991,1840,540.474,1840Z" transform="translate(-536 -1840)"/>
  <path id="矩形_797_拷贝" data-name="矩形 797 拷贝" class="cls-2" d="M542,1844h1v6h-1v-6Zm4,0h1v6h-1v-6Zm-3,2h3v1h-3v-1Zm5-1h1v4h-1v-4Zm4,0h1v4h-1v-4Zm-3,0v-1h3v1h-3Zm0,5v-1h3v1h-3Zm5-6h5v1h-5v-1Zm2,1h1v5h-1v-5Z" transform="translate(-536 -1840)"/>
</svg>
