<svg id="new" xmlns="http://www.w3.org/2000/svg" width="34" height="15" viewBox="0 0 34 15">
  <metadata><?xpacket begin="﻿" id="W5M0MpCehiHzreSzNTczkc9d"?>
<x:xmpmeta xmlns:x="adobe:ns:meta/" x:xmptk="Adobe XMP Core 5.6-c138 79.159824, 2016/09/14-01:09:01        ">
   <rdf:RDF xmlns:rdf="http://www.w3.org/1999/02/22-rdf-syntax-ns#">
      <rdf:Description rdf:about=""/>
   </rdf:RDF>
</x:xmpmeta>
                                                                                                    
                                                                                                    
                                                                                                    
                                                                                                    
                                                                                                    
                                                                                                    
                                                                                                    
                                                                                                    
                                                                                                    
                                                                                                    
                                                                                                    
                                                                                                    
                                                                                                    
                                                                                                    
                                                                                                    
                                                                                                    
                                                                                                    
                                                                                                    
                                                                                                    
                                                                                                    
                           
<?xpacket end="w"?></metadata>
<defs>
    <style>
      .cls-1 {
        fill: #ff7548;
      }

      .cls-1, .cls-2 {
        fill-rule: evenodd;
      }

      .cls-2 {
        fill: #fff;
      }
    </style>
  </defs>
  <path id="矩形_517_拷贝_8" data-name="矩形 517 拷贝 8" class="cls-1" d="M1098.85,4067h17.46a7.5,7.5,0,1,1,0,15H1090s3.69-1.9,3.21-2.4a7.344,7.344,0,0,1-2.05-5.1A7.59,7.59,0,0,1,1098.85,4067Zm-1.54,15" transform="translate(-1090 -4067)"/>
  <path id="new-2" data-name="new" class="cls-2" d="M1100.6,4071.16a2.252,2.252,0,0,0-1.12.29,2.139,2.139,0,0,0-.82.79v-0.91h-0.96v6.2h0.96v-3.74a1.987,1.987,0,0,1,.55-1.34,1.482,1.482,0,0,1,1.11-.47,1.523,1.523,0,0,1,1.63,1.81v3.74h0.96v-3.81c0-1.71-.77-2.56-2.31-2.56h0Zm6.34,0a2.632,2.632,0,0,0-2.13.97,3.391,3.391,0,0,0-.78,2.3,3.457,3.457,0,0,0,.82,2.4,2.745,2.745,0,0,0,2.13.87,2.913,2.913,0,0,0,1.98-.69,3,3,0,0,0,.84-1.47h-0.96a2.1,2.1,0,0,1-.63.97,1.888,1.888,0,0,1-1.23.39,1.741,1.741,0,0,1-1.39-.58,2.652,2.652,0,0,1-.56-1.62h4.89a4.345,4.345,0,0,0-.72-2.53,2.663,2.663,0,0,0-2.26-1.01h0Zm0.03,0.81a1.846,1.846,0,0,1,1.95,1.99h-3.87a2.437,2.437,0,0,1,.59-1.45,1.726,1.726,0,0,1,1.33-.54h0Zm5.5,5.56h0.9l1.46-4.99,1.43,4.99h0.91l2.11-6.2h-1.05l-1.52,5.03-1.44-5.03h-0.9l-1.44,5.03-1.52-5.03h-1.05Z" transform="translate(-1090 -4067)"/>
</svg>
