<svg xmlns="http://www.w3.org/2000/svg" width="9" height="14" viewBox="0 0 9 14">
  <metadata><?xpacket begin="﻿" id="W5M0MpCehiHzreSzNTczkc9d"?>
<x:xmpmeta xmlns:x="adobe:ns:meta/" x:xmptk="Adobe XMP Core 5.6-c138 79.159824, 2016/09/14-01:09:01        ">
   <rdf:RDF xmlns:rdf="http://www.w3.org/1999/02/22-rdf-syntax-ns#">
      <rdf:Description rdf:about=""/>
   </rdf:RDF>
</x:xmpmeta>
                                                                                                    
                                                                                                    
                                                                                                    
                                                                                                    
                                                                                                    
                                                                                                    
                                                                                                    
                                                                                                    
                                                                                                    
                                                                                                    
                                                                                                    
                                                                                                    
                                                                                                    
                                                                                                    
                                                                                                    
                                                                                                    
                                                                                                    
                                                                                                    
                                                                                                    
                                                                                                    
                           
<?xpacket end="w"?></metadata>
<defs>
    <style>
      .cls-1 {
        fill: #ff7548;
        fill-rule: evenodd;
      }
    </style>
  </defs>
  <path id="phone" class="cls-1" d="M801,4068h-7a0.956,0.956,0,0,0-.994,1.02v11.97a1.088,1.088,0,0,0,1.155,1.01h6.677a1.088,1.088,0,0,0,1.155-1.01v-11.97A0.956,0.956,0,0,0,801,4068Zm-5.147.62h3.3a0.218,0.218,0,0,1,.151.25c0,0.14-.216.13-0.3,0.13h-3c-0.083,0-.3.01-0.3-0.13A0.218,0.218,0,0,1,795.852,4068.62ZM797.5,4081a0.655,0.655,0,1,1,.736-0.65A0.7,0.7,0,0,1,797.5,4081Zm3.5-2h-7v-9h7v9Z" transform="translate(-793 -4068)"/>
</svg>
