<?xml version="1.0" encoding="utf-8"?>
<!-- Generator: Adobe Illustrator 21.1.0, SVG Export Plug-In . SVG Version: 6.00 Build 0)  -->
<svg version="1.1" id="图层_1" xmlns="http://www.w3.org/2000/svg" xmlns:xlink="http://www.w3.org/1999/xlink" x="0px" y="0px"
	 viewBox="0 0 14 14" style="enable-background:new 0 0 14 14;" xml:space="preserve">
<style type="text/css">
	.st0{fill:#3464E0;}
</style>
<path id="换一换" class="st0" d="M2.43,1.7c2.923-2.526,7.34-2.204,9.866,0.718c2.097,2.426,2.275,5.967,0.434,8.592L10.5,7h2.1
	c0.009-3.089-2.488-5.601-5.578-5.61C5.567,1.386,4.167,1.949,3.12,2.96C3.13,2.96,2.43,1.7,2.43,1.7L2.43,1.7L2.43,1.7z
	 M11.58,12.29c-2.927,2.525-7.348,2.199-9.873-0.728C-0.384,9.138-0.564,5.604,1.27,2.98L3.5,7H1.4
	c-0.001,3.093,2.506,5.601,5.598,5.602c1.452,0,2.847-0.563,3.892-1.572L11.58,12.29z"/>
</svg>
