<?xml version="1.0" encoding="utf-8"?>
<!-- Generator: Adobe Illustrator 23.0.0, SVG Export Plug-In . SVG Version: 6.00 Build 0)  -->
<svg version="1.1" id="图层_1" xmlns="http://www.w3.org/2000/svg" xmlns:xlink="http://www.w3.org/1999/xlink" x="0px" y="0px"
	 viewBox="0 0 18 18" style="enable-background:new 0 0 18 18;" xml:space="preserve">
<g>
	<path d="M14.672,10.321c0.717-0.624,1.145-1.547,1.145-2.521c0-1.824-1.448-3.308-3.229-3.308
		c-0.354,0-0.642,0.284-0.642,0.633s0.288,0.633,0.642,0.633c1.073,0,1.946,0.916,1.946,2.042s-0.873,2.042-1.946,2.042
		c-0.354,0-0.642,0.284-0.642,0.633v0.001v0.001c0,0.35,0.288,0.634,0.642,0.634c2.024,0,3.671,1.716,3.671,3.825
		c0,0.349,0.288,0.633,0.642,0.633s0.641-0.284,0.641-0.633C17.541,12.938,16.408,11.148,14.672,10.321z"/>
	<path d="M9.642,9.406c1.045-0.768,1.672-1.973,1.672-3.271c0-2.259-1.88-4.097-4.19-4.097s-4.19,1.838-4.19,4.097
		c0,1.28,0.614,2.472,1.636,3.241c-2.449,0.962-4.11,3.316-4.11,5.923c0,0.366,0.301,0.663,0.672,0.663
		c0.37,0,0.671-0.297,0.671-0.663c0-2.79,2.32-5.061,5.14-5.063c0.055,0.005,0.104,0.003,0.145-0.002l0.064,0.004
		c2.849,0.001,5.167,2.271,5.167,5.062c0,0.366,0.301,0.663,0.671,0.663s0.671-0.297,0.671-0.663
		C13.659,12.688,12.069,10.392,9.642,9.406z M9.971,6.135c0,1.528-1.277,2.771-2.848,2.771S4.275,7.663,4.275,6.135
		s1.277-2.772,2.848-2.772S9.971,4.606,9.971,6.135z"/>
</g>
</svg>
