<?xml version="1.0" encoding="utf-8"?>
<!-- Generator: Adobe Illustrator 23.0.0, SVG Export Plug-In . SVG Version: 6.00 Build 0)  -->
<svg version="1.1" id="图层_1" xmlns="http://www.w3.org/2000/svg" xmlns:xlink="http://www.w3.org/1999/xlink" x="0px" y="0px"
	 viewBox="0 0 14 14" style="enable-background:new 0 0 14 14;" xml:space="preserve">
<style type="text/css">
	.st0{fill-rule:evenodd;clip-rule:evenodd;fill:#3464E0;}
</style>
<g>
	<path class="st0" d="M7.58,6.42c0.123,0.128,0.293,0.2,0.47,0.2c0.18,0,0.353-0.072,0.48-0.2l4.12-4.12v2.06
		c0.004,0.374,0.306,0.676,0.68,0.68C13.702,5.035,14,4.731,14,4.36V0.65c0-0.04-0.01-0.08-0.01-0.11s-0.01-0.04-0.02-0.06
		l-0.01-0.02c0-0.01-0.01-0.03-0.01-0.04c-0.013-0.032-0.03-0.062-0.05-0.09c0-0.01-0.01-0.02-0.01-0.03
		c-0.05-0.075-0.115-0.14-0.19-0.19c-0.012-0.009-0.026-0.015-0.04-0.02c-0.025-0.017-0.052-0.031-0.08-0.04
		c-0.016-0.008-0.033-0.015-0.05-0.02h-0.02c-0.02-0.01-0.03-0.01-0.05-0.02C13.42,0.001,13.38-0.002,13.34,0h-3.7
		C9.269-0.005,8.964,0.292,8.96,0.664c0,0.002,0,0.004,0,0.006C8.96,1.045,9.265,1.349,9.64,1.35h2.06L7.58,5.47
		C7.32,5.733,7.32,6.156,7.58,6.42z"/>
	<path class="st0" d="M14,7.62c0-0.55-0.45-1-1-1c-0.55,0-1,0.45-1,1v1.934c0,0.001,0,0.001,0,0.002V11c0,0.552-0.448,1-1,1H3
		c-0.552,0-1-0.448-1-1V3c0-0.552,0.448-1,1-1h1.566c0.001,0,0.002,0,0.002,0h1.934c0.55,0,1-0.45,1-1c0-0.55-0.45-1-1-1H5.47H4.568
		H2.11C0.946,0.004,0.004,0.946,0,2.11v9.78c0.004,1.164,0.946,2.106,2.11,2.11h9.78c1.164-0.004,2.106-0.946,2.11-2.11V9.555
		c0,0,0,0,0,0V7.62z"/>
</g>
</svg>
