<svg xmlns="http://www.w3.org/2000/svg" width="14" height="14" viewBox="0 0 14 14">
  <defs>
    <style>
      .cls-1 {
        fill: #999;
        fill-rule: evenodd;
      }
    </style>
  </defs>
  <path id="转发" class="cls-1" d="M1083.33,3903.85A2.072,2.072,0,0,0,1082,3905v4c0,0.42.42,0,0,0h-10c-0.42,0,0,.42,0,0v-10c0-.42-0.42,0,0,0h5c0.37,0,.15-0.96.15-1.33a0.679,0.679,0,0,0-.68-0.67h-4.36a2.117,2.117,0,0,0-2.11,2.11v9.78a2.117,2.117,0,0,0,2.11,2.11h9.78a2.117,2.117,0,0,0,2.11-2.11v-4.36A0.679,0.679,0,0,0,1083.33,3903.85Zm0.67-6.2c0-.04-0.01-0.07-0.01-0.11-0.01-.02-0.01-0.04-0.02-0.06l-0.01-.02c0-.01-0.01-0.03-0.01-0.04a0.405,0.405,0,0,0-.05-0.09c0-.01-0.01-0.02-0.01-0.03a0.856,0.856,0,0,0-.19-0.19,0.147,0.147,0,0,0-.04-0.02,0.3,0.3,0,0,0-.08-0.04,0.257,0.257,0,0,0-.05-0.02h-0.02c-0.02-.01-0.03-0.01-0.05-0.02a0.487,0.487,0,0,0-.12-0.01h-3.7a0.67,0.67,0,1,0,0,1.34h2.06l-4.12,4.13a0.676,0.676,0,0,0,0,.95,0.651,0.651,0,0,0,.47.2,0.673,0.673,0,0,0,.48-0.2l4.12-4.12v2.06a0.687,0.687,0,0,0,.68.68,0.679,0.679,0,0,0,.67-0.68v-3.71Z" transform="translate(-1070 -3897)"/>
</svg>
